HIERARCHY
ROOT Hips
{
	OFFSET 0.000000 0.000000 0.000000
	CHANNELS 6 Xposition Yposition Zposition Zrotation Yrotation Xrotation 
	JOINT LHipJoint
	{
		OFFSET 0.000000 0.000000 0.000000
		CHANNELS 3 Zrotation Yrotation Xrotation
		JOINT LeftUpLeg
		{
			OFFSET 1.363060 -1.794630 0.839290
			CHANNELS 3 Zrotation Yrotation Xrotation
			JOINT LeftLeg
			{
				OFFSET 2.448110 -6.726130 0.000000
				CHANNELS 3 Zrotation Yrotation Xrotation
				JOINT LeftFoot
				{
					OFFSET 2.562200 -7.039590 0.000000
					CHANNELS 3 Zrotation Yrotation Xrotation
					JOINT LeftToeBase
					{
						OFFSET 0.157640 -0.433110 2.322550
						CHANNELS 3 Zrotation Yrotation Xrotation
						End Site
						{
							OFFSET 0.000000 0.000000 0.000000
						}
					}
				}
			}
		}
	}
	JOINT RHipJoint
	{
		OFFSET 0.000000 0.000000 0.000000
		CHANNELS 3 Zrotation Yrotation Xrotation
		JOINT RightUpLeg
		{
			OFFSET -1.305520 -1.794630 0.839290
			CHANNELS 3 Zrotation Yrotation Xrotation
			JOINT RightLeg
			{
				OFFSET -2.542530 -6.985550 0.000000
				CHANNELS 3 Zrotation Yrotation Xrotation
				JOINT RightFoot
				{
					OFFSET -2.568260 -7.056230 0.000000
					CHANNELS 3 Zrotation Yrotation Xrotation
					JOINT RightToeBase
					{
						OFFSET -0.164730 -0.452590 2.363150
						CHANNELS 3 Zrotation Yrotation Xrotation
						End Site
						{
							OFFSET 0.000000 0.000000 0.000000
						}
					}
				}
			}
		}
	}
	JOINT LowerBack
	{
		OFFSET 0.000000 0.000000 0.000000
		CHANNELS 3 Zrotation Yrotation Xrotation
		JOINT Spine
		{
			OFFSET 0.028270 2.035590 -0.193380
			CHANNELS 3 Zrotation Yrotation Xrotation
			JOINT Spine1
			{
				OFFSET 0.056720 2.048850 -0.042750
				CHANNELS 3 Zrotation Yrotation Xrotation
				JOINT Neck
				{
					OFFSET 0.000000 0.000000 0.000000
					CHANNELS 3 Zrotation Yrotation Xrotation
					JOINT Neck1
					{
						OFFSET -0.054170 1.746240 0.172020
						CHANNELS 3 Zrotation Yrotation Xrotation
						JOINT Head
						{
							OFFSET 0.104070 1.761360 -0.123970
							CHANNELS 3 Zrotation Yrotation Xrotation
							End Site
							{
								OFFSET 0.000000 0.000000 0.000000
							}
						}
					}
				}
				JOINT LeftShoulder
				{
					OFFSET 0.000000 0.000000 0.000000
					CHANNELS 3 Zrotation Yrotation Xrotation
					JOINT LeftArm
					{
						OFFSET 3.362410 1.200890 -0.311210
						CHANNELS 3 Zrotation Yrotation Xrotation
						JOINT LeftForeArm
						{
							OFFSET 4.983000 -0.000000 -0.000000
							CHANNELS 3 Zrotation Yrotation Xrotation
							JOINT LeftHand
							{
								OFFSET 3.483560 -0.000000 -0.000000
								CHANNELS 3 Zrotation Yrotation Xrotation
								JOINT LeftFingerBase
								{
									OFFSET 0.000000 0.000000 0.000000
									CHANNELS 3 Zrotation Yrotation Xrotation
									JOINT LeftHandIndex1
									{
										OFFSET 0.715260 -0.000000 -0.000000
										CHANNELS 3 Zrotation Yrotation Xrotation
										End Site
										{
											OFFSET 0.000000 0.000000 0.000000
										}
									}
								}
								JOINT LThumb
								{
									OFFSET 0.000000 0.000000 0.000000
									CHANNELS 3 Zrotation Yrotation Xrotation
									End Site
									{
										OFFSET 0.000000 0.000000 0.000000
									}
								}
							}
						}
					}
				}
				JOINT RightShoulder
				{
					OFFSET 0.000000 0.000000 0.000000
					CHANNELS 3 Zrotation Yrotation Xrotation
					JOINT RightArm
					{
						OFFSET -3.136600 1.374050 -0.404650
						CHANNELS 3 Zrotation Yrotation Xrotation
						JOINT RightForeArm
						{
							OFFSET -5.241900 -0.000000 -0.000000
							CHANNELS 3 Zrotation Yrotation Xrotation
							JOINT RightHand
							{
								OFFSET -3.444170 -0.000000 -0.000000
								CHANNELS 3 Zrotation Yrotation Xrotation
								JOINT RightFingerBase
								{
									OFFSET 0.000000 0.000000 0.000000
									CHANNELS 3 Zrotation Yrotation Xrotation
									JOINT RightHandIndex1
									{
										OFFSET -0.622530 -0.000000 -0.000000
										CHANNELS 3 Zrotation Yrotation Xrotation
										End Site
										{
											OFFSET 0.000000 0.000000 0.000000
										}
									}
								}
								JOINT RThumb
								{
									OFFSET 0.000000 0.000000 0.000000
									CHANNELS 3 Zrotation Yrotation Xrotation
									End Site
									{
										OFFSET 0.000000 0.000000 0.000000
									}
								}
							}
						}
					}
				}
			}
		}
	}
}
MOTION
Frames: 8
Frame Time: 0.008333
28.806135 17.404044 5.494532 -175.414336 1.602183 -175.028400 18.848341 3.719277 -2.929118 -31.671154 -18.934987 1.133242 -10.936870 5.438035 13.408907 1.369270 -12.296977 -12.257362 2.062100 -8.994200 -25.777200 -22.872065 -3.964531 -4.587460 50.200490 16.860002 13.563902 14.704301 3.153861 -4.414228 -1.841735 -12.922480 -25.511158 -0.114200 2.179200 -6.001200 6.191462 1.436233 9.359813 0.819424 3.455458 -4.486171 -4.121856 1.230437 -13.376467 10.053948 7.080044 -14.432705 6.375712 5.567015 15.907550 -0.178500 3.273200 11.855900 8.900260 -6.741288 0.656995 -83.191484 11.870224 28.990311 15.622071 -28.756791 -4.697451 -0.133721 2.468797 11.810019 21.571268 28.519423 10.108600 -7.125000 0.000000 0.000000 -8.401400 57.378600 -2.559200 -10.252475 7.508643 2.152672 84.160756 -17.570422 31.141992 -20.777880 35.970680 -5.996022 0.059284 -3.116640 -9.518133 -26.951083 -20.876176 8.538000 7.125000 0.000000 0.000000 1.365800 -49.355900 -0.146700 
28.789823 17.415680 5.469954 -175.225996 1.347307 -175.262908 18.813128 3.834663 -2.884485 -31.496842 -18.487719 1.786989 -11.055180 4.922052 12.508585 1.328697 -11.675492 -12.088515 2.025700 -8.919400 -25.543500 -22.933059 -4.047657 -4.647553 50.534868 16.262274 14.774112 14.685579 4.000711 -5.938088 -1.825098 -13.381977 -25.303170 -0.074300 1.758000 -4.837300 6.198951 1.463604 9.207360 0.792311 3.505148 -4.525995 -4.195764 1.251076 -13.386131 9.963108 6.790768 -14.444548 6.456169 5.217605 15.688847 -0.157300 3.120600 11.698900 8.882887 -6.752460 0.657014 -83.145202 11.998897 28.893368 15.536423 -28.636539 -4.643318 -0.111025 2.453274 12.262660 21.456712 27.910574 9.840000 -7.125000 0.000000 0.000000 -8.269700 56.752200 -2.393400 -10.289671 7.531572 2.166821 84.676339 -17.646109 30.175697 -20.735374 36.023219 -6.021186 0.034412 -3.137973 -9.645484 -27.251194 -20.812246 8.595900 7.125000 0.000000 0.000000 1.087900 -49.306700 -0.115500 
28.779166 17.427643 5.449618 -175.217965 1.118372 -175.446100 18.801744 3.918530 -2.854511 -31.465411 -18.045414 2.196769 -11.147039 4.567300 11.882557 1.251076 -11.101535 -11.737983 1.988500 -8.842200 -25.302800 -22.958122 -4.110128 -4.695114 50.583121 15.766196 15.692483 14.635711 4.679600 -7.150478 -1.768455 -13.904076 -24.737424 -0.090800 1.943200 -5.348600 5.973634 1.443659 9.013216 0.777888 3.455394 -4.560947 -4.138670 1.254774 -13.368238 9.888999 6.615641 -14.527204 6.361086 5.012109 15.574012 -0.226100 3.020600 11.643500 8.877012 -6.758388 0.656270 -82.990441 11.981329 28.795836 15.363643 -28.416712 -4.536793 -0.186481 2.439679 12.543652 19.913436 27.878710 9.148200 -7.125000 0.000000 0.000000 -9.833300 56.467500 -2.783600 -10.293881 7.541651 2.179472 84.973464 -17.760236 29.738168 -20.881372 36.209088 -6.102066 0.029087 -3.153164 -10.111272 -27.618119 -20.791121 8.700900 7.125000 0.000000 0.000000 0.750900 -49.320000 -0.080000 
28.771009 17.436669 5.439722 -175.307810 0.873688 -175.505739 18.783708 3.963633 -2.843599 -31.407577 -17.541396 2.221439 -11.196349 4.375269 11.513757 1.138821 -10.688196 -11.043411 2.049400 -8.968100 -25.695700 -22.946522 -4.147307 -4.714956 50.427860 15.427387 16.122624 14.580215 5.082439 -7.888735 -1.707344 -14.378348 -24.183082 -0.124100 2.270500 -6.253900 5.640438 1.372719 8.781803 0.784350 3.321209 -4.601022 -3.945156 1.240313 -13.347714 9.675601 6.595325 -14.754563 6.291526 5.037937 15.582786 -0.223300 3.012000 11.694200 8.878026 -6.759669 0.648113 -82.898259 11.765958 28.388510 15.044252 -28.109709 -4.468179 -0.195591 2.451353 12.521705 19.852805 28.432943 9.303500 -7.125000 0.000000 0.000000 -10.141000 57.005000 -3.004100 -10.282702 7.539878 2.183031 84.986659 -17.810187 29.828572 -21.096630 36.403236 -6.182044 0.061438 -3.163608 -10.857534 -27.712970 -20.903614 8.780600 7.125000 0.000000 0.000000 0.684900 -49.444700 -0.075100 
28.766986 17.445586 5.438743 -175.338290 0.638399 -175.551282 18.756284 4.003516 -2.835547 -31.278035 -17.151203 2.275642 -11.239303 4.159213 11.094954 1.043371 -10.358446 -10.376163 2.148600 -9.169100 -26.325600 -22.940517 -4.173354 -4.717883 50.371738 15.200355 16.189442 14.565241 5.172230 -8.063786 -1.695334 -14.548010 -24.091730 -0.125200 2.281300 -6.283700 5.331572 1.337571 8.656532 0.796841 3.247186 -4.642383 -3.712326 1.253135 -13.426107 9.440045 6.504305 -14.790131 6.191012 5.030500 15.364489 -0.249100 2.985000 11.562200 8.898684 -6.785517 0.646994 -83.212762 11.732957 27.360408 14.923016 -27.979763 -4.419459 -0.214184 2.454711 13.097180 18.958235 28.288616 8.854200 -7.125000 0.000000 0.000000 -10.984400 56.701400 -3.177100 -10.267531 7.547773 2.192328 84.888742 -17.857327 30.146744 -21.297220 36.553981 -6.232533 0.116387 -3.166658 -11.717870 -27.495609 -20.924476 8.711500 7.125000 0.000000 0.000000 0.897200 -49.430900 -0.098000 
28.756002 17.453416 5.427325 -175.407128 0.546459 -175.574221 18.768729 4.055131 -2.823171 -31.461048 -17.171570 2.894458 -11.375125 3.706468 10.196238 1.014600 -9.933025 -10.554613 2.203500 -9.277800 -26.668100 -22.919845 -4.199387 -4.699485 50.233297 15.129037 16.128529 14.566080 5.100233 -7.903724 -1.698726 -14.494997 -24.207319 -0.156700 2.550500 -7.029700 5.129213 1.389922 8.423763 0.772572 3.301093 -4.667767 -3.703831 1.302461 -13.413217 9.360278 6.367205 -14.731089 5.930504 4.943735 15.069869 -0.406500 2.925700 11.374400 8.877714 -6.800390 0.667033 -83.011855 11.810923 27.157677 14.946099 -28.048123 -4.532881 -0.100118 2.469664 12.955302 21.345959 28.807597 10.109100 -7.125000 0.000000 0.000000 -8.766300 57.634300 -2.725600 -10.241897 7.533852 2.199512 84.847500 -17.934616 30.467009 -21.481768 36.710794 -6.277986 0.163165 -3.166901 -12.287954 -27.225647 -20.951732 8.629900 7.125000 0.000000 0.000000 1.154500 -49.418300 -0.125800 
28.734470 17.458310 5.415580 -175.557466 0.585095 -175.489806 18.814777 4.099633 -2.818888 -31.874224 -17.381829 3.727656 -11.568422 3.123375 8.991067 1.013787 -9.347069 -11.229511 2.213300 -9.296900 -26.728500 -22.864712 -4.212288 -4.650153 49.911595 15.259668 15.877742 14.559901 4.934053 -7.569721 -1.676138 -14.458726 -24.153571 -0.220200 3.021000 -8.337300 5.035939 1.498611 8.081590 0.687345 3.446867 -4.687030 -3.934579 1.362220 -13.302376 9.280389 6.263449 -14.775992 5.742054 4.875154 14.868047 -0.504500 2.878900 11.257800 8.852042 -6.805406 0.680030 -82.736438 11.739240 26.888134 14.970131 -28.013335 -4.535541 -0.093940 2.452679 13.008379 21.446304 28.522773 10.060000 -7.125000 0.000000 0.000000 -8.542200 57.381200 -2.603000 -10.245084 7.508222 2.201016 84.856909 -17.944579 30.931981 -21.621338 36.874946 -6.331255 0.165963 -3.172070 -12.493631 -27.421194 -21.024935 8.729600 7.125000 0.000000 0.000000 0.982000 -49.520000 -0.109400 
28.709893 17.458745 5.421126 -175.602594 0.707415 -175.300397 18.796418 4.149378 -2.847613 -31.800781 -16.900199 4.087959 -11.700864 2.518998 7.737829 0.924786 -8.529742 -10.992700 2.211700 -9.293700 -26.718500 -22.804172 -4.207688 -4.553473 49.663206 15.639800 15.296322 14.569729 4.621968 -7.034925 -1.634466 -14.564531 -23.920829 -0.295700 3.496600 -9.664700 5.088033 1.619775 7.823744 0.608660 3.630421 -4.714022 -4.176510 1.424591 -13.252525 9.078196 6.173600 -14.897942 5.649339 4.846648 14.687440 -0.510900 2.844500 11.161100 8.811210 -6.815695 0.691338 -82.516979 11.616907 26.468577 14.984316 -28.074955 -4.684498 -0.013302 2.473724 12.817057 23.725917 30.055992 11.718500 -7.125000 0.000000 0.000000 -6.800800 59.363800 -2.392800 -10.250693 7.471678 2.192828 84.727238 -17.819903 31.565502 -21.688682 36.956525 -6.360784 0.140219 -3.168272 -12.241690 -27.762236 -21.020720 8.850500 7.125000 0.000000 0.000000 0.653500 -49.569700 -0.073600 
